<svg width="326" height="136" viewBox="0 0 326 136" fill="none" xmlns="http://www.w3.org/2000/svg">
<path d="M16.7144 13.108C15.6824 13.108 14.8864 12.744 14.3264 12.016C13.7664 11.288 13.4864 10.272 13.4864 8.968C13.4864 7.992 13.6264 7.168 13.9064 6.496C14.1944 5.824 14.6024 5.312 15.1304 4.96C15.6584 4.608 16.2904 4.432 17.0264 4.432C17.4744 4.432 17.9224 4.52 18.3704 4.696C18.8184 4.872 19.1904 5.116 19.4864 5.428L19.0784 6.292C18.7824 5.988 18.4544 5.764 18.0944 5.62C17.7424 5.468 17.3824 5.392 17.0144 5.392C16.2224 5.392 15.6144 5.676 15.1904 6.244C14.7744 6.804 14.5664 7.64 14.5664 8.752V9.82H14.4464C14.5024 9.372 14.6384 8.988 14.8544 8.668C15.0784 8.348 15.3624 8.1 15.7064 7.924C16.0584 7.748 16.4544 7.66 16.8944 7.66C17.3984 7.66 17.8464 7.776 18.2384 8.008C18.6304 8.24 18.9384 8.556 19.1624 8.956C19.3864 9.356 19.4984 9.82 19.4984 10.348C19.4984 10.876 19.3784 11.352 19.1384 11.776C18.8984 12.192 18.5704 12.52 18.1544 12.76C17.7384 12.992 17.2584 13.108 16.7144 13.108ZM16.6544 12.184C17.0064 12.184 17.3144 12.108 17.5784 11.956C17.8504 11.804 18.0584 11.592 18.2024 11.32C18.3544 11.048 18.4304 10.736 18.4304 10.384C18.4304 10.032 18.3544 9.72 18.2024 9.448C18.0584 9.176 17.8504 8.964 17.5784 8.812C17.3144 8.66 17.0064 8.584 16.6544 8.584C16.3024 8.584 15.9904 8.66 15.7184 8.812C15.4544 8.964 15.2464 9.176 15.0944 9.448C14.9424 9.72 14.8664 10.032 14.8664 10.384C14.8664 10.736 14.9424 11.048 15.0944 11.32C15.2464 11.592 15.4544 11.804 15.7184 11.956C15.9904 12.108 16.3024 12.184 16.6544 12.184ZM20.5057 13V11.668H21.8377V13H20.5057ZM25.9145 13.108C24.9465 13.108 24.2025 12.736 23.6825 11.992C23.1625 11.24 22.9025 10.164 22.9025 8.764C22.9025 7.34 23.1625 6.264 23.6825 5.536C24.2025 4.8 24.9465 4.432 25.9145 4.432C26.8905 4.432 27.6345 4.8 28.1465 5.536C28.6665 6.264 28.9265 7.336 28.9265 8.752C28.9265 10.16 28.6665 11.24 28.1465 11.992C27.6265 12.736 26.8825 13.108 25.9145 13.108ZM25.9145 12.16C26.5545 12.16 27.0305 11.884 27.3425 11.332C27.6625 10.78 27.8225 9.92 27.8225 8.752C27.8225 7.584 27.6625 6.732 27.3425 6.196C27.0305 5.652 26.5545 5.38 25.9145 5.38C25.2825 5.38 24.8065 5.652 24.4865 6.196C24.1665 6.732 24.0065 7.584 24.0065 8.752C24.0065 9.92 24.1665 10.78 24.4865 11.332C24.8065 11.884 25.2825 12.16 25.9145 12.16Z" fill="#8C9198"/>
<path d="M17.3864 45V43.212H13.4144V42.408L17.5664 36.54H18.4784V42.324H19.7504V43.212H18.4784V45H17.3864ZM17.3864 42.324V37.86H17.6624L14.3144 42.588V42.324H17.3864ZM20.5057 45V43.668H21.8377V45H20.5057ZM26.0585 45.108C25.6905 45.108 25.3265 45.068 24.9665 44.988C24.6145 44.908 24.2825 44.796 23.9705 44.652C23.6585 44.5 23.3865 44.316 23.1545 44.1L23.5505 43.236C23.9425 43.548 24.3425 43.78 24.7505 43.932C25.1585 44.076 25.5865 44.148 26.0345 44.148C26.6265 44.148 27.0905 43.992 27.4265 43.68C27.7625 43.368 27.9305 42.952 27.9305 42.432C27.9305 41.896 27.7705 41.464 27.4505 41.136C27.1305 40.8 26.6865 40.632 26.1185 40.632C25.7265 40.632 25.3705 40.712 25.0505 40.872C24.7385 41.024 24.4625 41.268 24.2225 41.604H23.4305V36.54H28.5065V37.488H24.5105V40.692H24.2225C24.4385 40.372 24.7305 40.124 25.0985 39.948C25.4745 39.772 25.8945 39.684 26.3585 39.684C26.9025 39.684 27.3705 39.796 27.7625 40.02C28.1625 40.244 28.4705 40.56 28.6865 40.968C28.9105 41.368 29.0225 41.836 29.0225 42.372C29.0225 42.908 28.9025 43.384 28.6625 43.8C28.4225 44.208 28.0785 44.528 27.6305 44.76C27.1905 44.992 26.6665 45.108 26.0585 45.108Z" fill="#8C9198"/>
<path d="M16.3784 77.108C15.8024 77.108 15.2504 77.02 14.7224 76.844C14.2024 76.668 13.7664 76.42 13.4144 76.1L13.8104 75.236C14.2024 75.556 14.6064 75.788 15.0224 75.932C15.4384 76.076 15.8784 76.148 16.3424 76.148C16.9584 76.148 17.4264 76.02 17.7464 75.764C18.0664 75.5 18.2264 75.124 18.2264 74.636C18.2264 74.156 18.0624 73.792 17.7344 73.544C17.4144 73.296 16.9424 73.172 16.3184 73.172H15.0224V72.248H16.2344C16.7624 72.248 17.1864 72.112 17.5064 71.84C17.8264 71.568 17.9864 71.196 17.9864 70.724C17.9864 70.292 17.8384 69.964 17.5424 69.74C17.2544 69.508 16.8424 69.392 16.3064 69.392C15.4024 69.392 14.6184 69.708 13.9544 70.34L13.5584 69.488C13.8944 69.152 14.3104 68.892 14.8064 68.708C15.3024 68.524 15.8264 68.432 16.3784 68.432C17.2184 68.432 17.8784 68.624 18.3584 69.008C18.8384 69.392 19.0784 69.928 19.0784 70.616C19.0784 71.136 18.9304 71.584 18.6344 71.96C18.3464 72.328 17.9504 72.572 17.4464 72.692V72.56C18.0384 72.664 18.4984 72.908 18.8264 73.292C19.1544 73.668 19.3184 74.14 19.3184 74.708C19.3184 75.452 19.0544 76.04 18.5264 76.472C18.0064 76.896 17.2904 77.108 16.3784 77.108ZM20.5057 77V75.668H21.8377V77H20.5057ZM25.9145 77.108C24.9465 77.108 24.2025 76.736 23.6825 75.992C23.1625 75.24 22.9025 74.164 22.9025 72.764C22.9025 71.34 23.1625 70.264 23.6825 69.536C24.2025 68.8 24.9465 68.432 25.9145 68.432C26.8905 68.432 27.6345 68.8 28.1465 69.536C28.6665 70.264 28.9265 71.336 28.9265 72.752C28.9265 74.16 28.6665 75.24 28.1465 75.992C27.6265 76.736 26.8825 77.108 25.9145 77.108ZM25.9145 76.16C26.5545 76.16 27.0305 75.884 27.3425 75.332C27.6625 74.78 27.8225 73.92 27.8225 72.752C27.8225 71.584 27.6625 70.732 27.3425 70.196C27.0305 69.652 26.5545 69.38 25.9145 69.38C25.2825 69.38 24.8065 69.652 24.4865 70.196C24.1665 70.732 24.0065 71.584 24.0065 72.752C24.0065 73.92 24.1665 74.78 24.4865 75.332C24.8065 75.884 25.2825 76.16 25.9145 76.16Z" fill="#8C9198"/>
<path d="M14.3264 109V108.052H16.3064V101.488H16.8704L14.5064 102.952V101.86L16.6184 100.54H17.4224V108.052H19.2824V109H14.3264ZM20.5057 109V107.668H21.8377V109H20.5057ZM26.0585 109.108C25.6905 109.108 25.3265 109.068 24.9665 108.988C24.6145 108.908 24.2825 108.796 23.9705 108.652C23.6585 108.5 23.3865 108.316 23.1545 108.1L23.5505 107.236C23.9425 107.548 24.3425 107.78 24.7505 107.932C25.1585 108.076 25.5865 108.148 26.0345 108.148C26.6265 108.148 27.0905 107.992 27.4265 107.68C27.7625 107.368 27.9305 106.952 27.9305 106.432C27.9305 105.896 27.7705 105.464 27.4505 105.136C27.1305 104.8 26.6865 104.632 26.1185 104.632C25.7265 104.632 25.3705 104.712 25.0505 104.872C24.7385 105.024 24.4625 105.268 24.2225 105.604H23.4305V100.54H28.5065V101.488H24.5105V104.692H24.2225C24.4385 104.372 24.7305 104.124 25.0985 103.948C25.4745 103.772 25.8945 103.684 26.3585 103.684C26.9025 103.684 27.3705 103.796 27.7625 104.02C28.1625 104.244 28.4705 104.56 28.6865 104.968C28.9105 105.368 29.0225 105.836 29.0225 106.372C29.0225 106.908 28.9025 107.384 28.6625 107.8C28.4225 108.208 28.0785 108.528 27.6305 108.76C27.1905 108.992 26.6665 109.108 26.0585 109.108Z" fill="#8C9198"/>
<g clip-path="url(#clip0_1_90)">
<path d="M42.5074 40H325.507" stroke="#EDEDED"/>
<path d="M42.5074 75H325.507" stroke="#EDEDED"/>
<path d="M42.5074 107L68.4119 83.6231C69.2045 82.9078 70.2502 82.5391 71.3162 82.599L101.72 84.3081C102.745 84.3657 103.752 84.0271 104.535 83.3622L131.995 60.0222C133.445 58.7895 135.564 58.7496 137.059 59.9267L164.555 81.5653C166.459 83.0639 169.248 82.5387 170.476 80.4502L196.168 36.776C197.645 34.2652 201.225 34.1248 202.894 36.5121L229.548 74.633C230.776 76.3891 233.17 76.8657 234.977 75.7139L261.771 58.6335C262.514 58.1599 263.392 57.9449 264.27 58.0217L293.177 60.5529C294.523 60.6708 295.839 60.1005 296.673 59.0368L326.507 21" stroke="#1D874F"/>
<path d="M67.9873 83.6537L42.3885 107.265C41.7193 107.882 42.156 109 43.0665 109H322.507C324.717 109 326.507 107.209 326.507 105V21L296.622 59.0397C295.788 60.1018 294.474 60.671 293.128 60.5534L264.165 58.0214C263.288 57.9448 262.411 58.1592 261.669 58.6316L234.819 75.7194C233.013 76.8686 230.623 76.3927 229.395 74.6394L202.685 36.5011C201.016 34.1171 197.44 34.2575 195.963 36.7651L170.218 80.4578C168.989 82.5434 166.204 83.068 164.3 81.5725L136.744 59.9214C135.249 58.7469 133.134 58.7868 131.685 60.0168L104.171 83.3646C103.389 84.028 102.382 84.3658 101.358 84.3084L70.9234 82.6003C69.8425 82.5396 68.7831 82.9197 67.9873 83.6537Z" fill="url(#paint0_linear_1_90)" fill-opacity="0.15"/>
<path d="M42.5074 85.3933L118.987 94.8029C120.014 94.9294 121.051 94.6524 121.878 94.0304L163.559 62.7027C164.468 62.0196 165.624 61.7555 166.74 61.9765L201.997 68.9628C202.82 69.1258 203.673 69.0262 204.435 68.6781L243.087 51.0392C244.48 50.4035 246.114 50.6188 247.295 51.5936L283.012 81.0832C284.308 82.1532 286.135 82.299 287.584 81.4481L326.507 58.5955" stroke="#DB3500" stroke-opacity="0.8" stroke-dasharray="2 2"/>
</g>
<path d="M67.7319 133.108C66.7639 133.108 66.0199 132.736 65.4999 131.992C64.9799 131.24 64.7199 130.164 64.7199 128.764C64.7199 127.34 64.9799 126.264 65.4999 125.536C66.0199 124.8 66.7639 124.432 67.7319 124.432C68.7079 124.432 69.4519 124.8 69.9639 125.536C70.4839 126.264 70.7439 127.336 70.7439 128.752C70.7439 130.16 70.4839 131.24 69.9639 131.992C69.4439 132.736 68.6999 133.108 67.7319 133.108ZM67.7319 132.16C68.3719 132.16 68.8479 131.884 69.1599 131.332C69.4799 130.78 69.6399 129.92 69.6399 128.752C69.6399 127.584 69.4799 126.732 69.1599 126.196C68.8479 125.652 68.3719 125.38 67.7319 125.38C67.0999 125.38 66.6239 125.652 66.3039 126.196C65.9839 126.732 65.8239 127.584 65.8239 128.752C65.8239 129.92 65.9839 130.78 66.3039 131.332C66.6239 131.884 67.0999 132.16 67.7319 132.16ZM74.0912 133.108C73.6432 133.108 73.1952 133.016 72.7472 132.832C72.2992 132.648 71.9272 132.404 71.6312 132.1L72.0392 131.248C72.3352 131.544 72.6592 131.768 73.0112 131.92C73.3712 132.072 73.7352 132.148 74.1032 132.148C74.8872 132.148 75.4912 131.868 75.9152 131.308C76.3392 130.74 76.5512 129.9 76.5512 128.788V127.72H76.6712C76.6232 128.16 76.4832 128.544 76.2512 128.872C76.0272 129.192 75.7432 129.44 75.3992 129.616C75.0552 129.792 74.6632 129.88 74.2232 129.88C73.7192 129.88 73.2712 129.764 72.8792 129.532C72.4872 129.3 72.1792 128.984 71.9552 128.584C71.7312 128.176 71.6192 127.712 71.6192 127.192C71.6192 126.656 71.7352 126.18 71.9672 125.764C72.2072 125.348 72.5352 125.024 72.9512 124.792C73.3672 124.552 73.8472 124.432 74.3912 124.432C75.4312 124.432 76.2312 124.796 76.7912 125.524C77.3512 126.244 77.6312 127.26 77.6312 128.572C77.6312 129.54 77.4872 130.364 77.1992 131.044C76.9192 131.716 76.5152 132.228 75.9872 132.58C75.4592 132.932 74.8272 133.108 74.0912 133.108ZM74.4632 128.956C74.8152 128.956 75.1232 128.88 75.3872 128.728C75.6592 128.576 75.8712 128.364 76.0232 128.092C76.1752 127.82 76.2512 127.508 76.2512 127.156C76.2512 126.796 76.1752 126.484 76.0232 126.22C75.8712 125.948 75.6592 125.736 75.3872 125.584C75.1232 125.424 74.8152 125.344 74.4632 125.344C74.1112 125.344 73.7992 125.424 73.5272 125.584C73.2632 125.736 73.0552 125.948 72.9032 126.22C72.7592 126.484 72.6872 126.796 72.6872 127.156C72.6872 127.508 72.7592 127.82 72.9032 128.092C73.0552 128.364 73.2632 128.576 73.5272 128.728C73.7992 128.88 74.1112 128.956 74.4632 128.956Z" fill="#6B7583"/>
<path d="M103.739 133V132.052H105.719V125.488H106.283L103.919 126.952V125.86L106.031 124.54H106.835V132.052H108.695V133H103.739ZM112.787 133.108C111.819 133.108 111.075 132.736 110.555 131.992C110.035 131.24 109.775 130.164 109.775 128.764C109.775 127.34 110.035 126.264 110.555 125.536C111.075 124.8 111.819 124.432 112.787 124.432C113.763 124.432 114.507 124.8 115.019 125.536C115.539 126.264 115.799 127.336 115.799 128.752C115.799 130.16 115.539 131.24 115.019 131.992C114.499 132.736 113.755 133.108 112.787 133.108ZM112.787 132.16C113.427 132.16 113.903 131.884 114.215 131.332C114.535 130.78 114.695 129.92 114.695 128.752C114.695 127.584 114.535 126.732 114.215 126.196C113.903 125.652 113.427 125.38 112.787 125.38C112.155 125.38 111.679 125.652 111.359 126.196C111.039 126.732 110.879 127.584 110.879 128.752C110.879 129.92 111.039 130.78 111.359 131.332C111.679 131.884 112.155 132.16 112.787 132.16Z" fill="#6B7583"/>
<path d="M143.311 133V132.052H145.291V125.488H145.855L143.491 126.952V125.86L145.603 124.54H146.407V132.052H148.267V133H143.311ZM150.246 133V132.052H152.226V125.488H152.79L150.426 126.952V125.86L152.538 124.54H153.342V132.052H155.202V133H150.246Z" fill="#6B7583"/>
<path d="M181.43 133V132.052H183.41V125.488H183.974L181.61 126.952V125.86L183.722 124.54H184.526V132.052H186.386V133H181.43ZM187.897 133V132.172L190.849 129.076C191.233 128.684 191.517 128.308 191.701 127.948C191.893 127.588 191.989 127.216 191.989 126.832C191.989 126.36 191.841 126.004 191.545 125.764C191.257 125.516 190.833 125.392 190.273 125.392C189.841 125.392 189.433 125.472 189.049 125.632C188.673 125.784 188.313 126.02 187.969 126.34L187.573 125.488C187.901 125.168 188.313 124.912 188.809 124.72C189.313 124.528 189.841 124.432 190.393 124.432C191.257 124.432 191.925 124.632 192.397 125.032C192.869 125.424 193.105 125.988 193.105 126.724C193.105 127.26 192.973 127.772 192.709 128.26C192.453 128.74 192.073 129.236 191.569 129.748L188.989 132.364V132.052H193.453V133H187.897Z" fill="#6B7583"/>
<path d="M222.454 133V132.052H224.434V125.488H224.998L222.634 126.952V125.86L224.746 124.54H225.55V132.052H227.41V133H222.454ZM231.441 133.108C230.865 133.108 230.313 133.02 229.785 132.844C229.265 132.668 228.829 132.42 228.477 132.1L228.873 131.236C229.265 131.556 229.669 131.788 230.085 131.932C230.501 132.076 230.941 132.148 231.405 132.148C232.021 132.148 232.489 132.02 232.809 131.764C233.129 131.5 233.289 131.124 233.289 130.636C233.289 130.156 233.125 129.792 232.797 129.544C232.477 129.296 232.005 129.172 231.381 129.172H230.085V128.248H231.297C231.825 128.248 232.249 128.112 232.569 127.84C232.889 127.568 233.049 127.196 233.049 126.724C233.049 126.292 232.901 125.964 232.605 125.74C232.317 125.508 231.905 125.392 231.369 125.392C230.465 125.392 229.681 125.708 229.017 126.34L228.621 125.488C228.957 125.152 229.373 124.892 229.869 124.708C230.365 124.524 230.889 124.432 231.441 124.432C232.281 124.432 232.941 124.624 233.421 125.008C233.901 125.392 234.141 125.928 234.141 126.616C234.141 127.136 233.993 127.584 233.697 127.96C233.409 128.328 233.013 128.572 232.509 128.692V128.56C233.101 128.664 233.561 128.908 233.889 129.292C234.217 129.668 234.381 130.14 234.381 130.708C234.381 131.452 234.117 132.04 233.589 132.472C233.069 132.896 232.353 133.108 231.441 133.108Z" fill="#6B7583"/>
<path d="M262.025 133V132.052H264.005V125.488H264.569L262.205 126.952V125.86L264.317 124.54H265.121V132.052H266.981V133H262.025ZM272.02 133V131.212H268.048V130.408L272.2 124.54H273.112V130.324H274.384V131.212H273.112V133H272.02ZM272.02 130.324V125.86H272.296L268.948 130.588V130.324H272.02Z" fill="#6B7583"/>
<path d="M301.596 133V132.052H303.576V125.488H304.14L301.776 126.952V125.86L303.888 124.54H304.692V132.052H306.552V133H301.596ZM310.788 133.108C310.42 133.108 310.056 133.068 309.696 132.988C309.344 132.908 309.012 132.796 308.7 132.652C308.388 132.5 308.116 132.316 307.884 132.1L308.28 131.236C308.672 131.548 309.072 131.78 309.48 131.932C309.888 132.076 310.316 132.148 310.764 132.148C311.356 132.148 311.82 131.992 312.156 131.68C312.492 131.368 312.66 130.952 312.66 130.432C312.66 129.896 312.5 129.464 312.18 129.136C311.86 128.8 311.416 128.632 310.848 128.632C310.456 128.632 310.1 128.712 309.78 128.872C309.468 129.024 309.192 129.268 308.952 129.604H308.16V124.54H313.236V125.488H309.24V128.692H308.952C309.168 128.372 309.46 128.124 309.828 127.948C310.204 127.772 310.624 127.684 311.088 127.684C311.632 127.684 312.1 127.796 312.492 128.02C312.892 128.244 313.2 128.56 313.416 128.968C313.64 129.368 313.752 129.836 313.752 130.372C313.752 130.908 313.632 131.384 313.392 131.8C313.152 132.208 312.808 132.528 312.36 132.76C311.92 132.992 311.396 133.108 310.788 133.108Z" fill="#6B7583"/>
<defs>
<linearGradient id="paint0_linear_1_90" x1="183.124" y1="2.42308" x2="183.308" y2="124.5" gradientUnits="userSpaceOnUse">
<stop stop-color="#2EB76F"/>
<stop offset="1" stop-color="#2EB76F" stop-opacity="0"/>
</linearGradient>
<clipPath id="clip0_1_90">
<rect width="283.667" height="107" fill="white" transform="translate(41.8408 2.5)"/>
</clipPath>
</defs>
</svg>
